<mxfile host="65bd71144e">
    <diagram id="8Sja1tul4LKNi_w8vkZC" name="Page-1">
        <mxGraphModel dx="1430" dy="455" grid="1" gridSize="10" guides="1" tooltips="1" connect="1" arrows="1" fold="1" page="1" pageScale="1" pageWidth="850" pageHeight="1100" math="0" shadow="0">
            <root>
                <mxCell id="0"/>
                <mxCell id="1" parent="0"/>
                <mxCell id="20" value="Horiozon Coimpile-time plugins target workflow" style="rounded=1;whiteSpace=wrap;html=1;arcSize=2;align=center;verticalAlign=top;" vertex="1" parent="1">
                    <mxGeometry x="10" y="120" width="820" height="219" as="geometry"/>
                </mxCell>
                <mxCell id="3" value="Horizon Game Server Instance" style="aspect=fixed;perimeter=ellipsePerimeter;html=1;align=center;shadow=0;dashed=0;spacingTop=3;image;image=img/lib/active_directory/generic_server.svg;" vertex="1" parent="1">
                    <mxGeometry x="700" y="248.04999999999998" width="60.42" height="41" as="geometry"/>
                </mxCell>
                <mxCell id="6" style="edgeStyle=none;html=1;" edge="1" parent="1" source="4" target="5">
                    <mxGeometry relative="1" as="geometry">
                        <Array as="points">
                            <mxPoint x="268" y="165"/>
                        </Array>
                    </mxGeometry>
                </mxCell>
                <mxCell id="9" value="Placed in /src/crates/My-Horizon-Plugin" style="edgeLabel;html=1;align=center;verticalAlign=middle;resizable=0;points=[];" vertex="1" connectable="0" parent="6">
                    <mxGeometry x="-0.1125" y="1" relative="1" as="geometry">
                        <mxPoint x="14" y="1" as="offset"/>
                    </mxGeometry>
                </mxCell>
                <mxCell id="4" value="My-Horizon-Plugin" style="verticalLabelPosition=bottom;html=1;verticalAlign=top;align=center;strokeColor=none;fillColor=#00BEF2;shape=mxgraph.azure.git_repository;" vertex="1" parent="1">
                    <mxGeometry x="80" y="140" width="50" height="49" as="geometry"/>
                </mxCell>
                <mxCell id="12" style="edgeStyle=none;html=1;" edge="1" parent="1" source="5" target="11">
                    <mxGeometry relative="1" as="geometry"/>
                </mxCell>
                <mxCell id="5" value="Open Via Editor" style="aspect=fixed;html=1;points=[];align=center;image;fontSize=12;image=img/lib/azure2/general/Code.svg;" vertex="1" parent="1">
                    <mxGeometry x="190" y="243.7" width="155.43" height="51" as="geometry"/>
                </mxCell>
                <mxCell id="8" style="edgeStyle=none;html=1;" edge="1" parent="1" source="7" target="5">
                    <mxGeometry relative="1" as="geometry"/>
                </mxCell>
                <mxCell id="7" value="Horizon-Community-Edition" style="verticalLabelPosition=bottom;html=1;verticalAlign=top;align=center;strokeColor=none;fillColor=#00BEF2;shape=mxgraph.azure.git_repository;" vertex="1" parent="1">
                    <mxGeometry x="80" y="243.7" width="50" height="51" as="geometry"/>
                </mxCell>
                <mxCell id="16" style="edgeStyle=none;html=1;entryX=0;entryY=0.5;entryDx=0;entryDy=0;entryPerimeter=0;" edge="1" parent="1" source="11" target="13">
                    <mxGeometry relative="1" as="geometry"/>
                </mxCell>
                <mxCell id="11" value="Compiler" style="pointerEvents=1;shadow=0;dashed=0;html=1;strokeColor=none;fillColor=#4495D1;labelPosition=center;verticalLabelPosition=bottom;verticalAlign=top;align=center;outlineConnect=0;shape=mxgraph.veeam.cpu;" vertex="1" parent="1">
                    <mxGeometry x="370" y="251.95" width="44.8" height="38.4" as="geometry"/>
                </mxCell>
                <mxCell id="19" style="edgeStyle=none;html=1;" edge="1" parent="1" source="13" target="3">
                    <mxGeometry relative="1" as="geometry"/>
                </mxCell>
                <mxCell id="13" value="Horizon Binary Executable" style="verticalLabelPosition=bottom;html=1;verticalAlign=top;align=center;strokeColor=none;fillColor=#00BEF2;shape=mxgraph.azure.cloud_service_package_file;" vertex="1" parent="1">
                    <mxGeometry x="510" y="250" width="42.5" height="40.35" as="geometry"/>
                </mxCell>
                <mxCell id="21" value="" style="rounded=1;whiteSpace=wrap;html=1;arcSize=2;align=center;verticalAlign=top;" vertex="1" parent="1">
                    <mxGeometry x="10" y="380" width="390" height="300" as="geometry"/>
                </mxCell>
                <mxCell id="30" style="edgeStyle=none;html=1;entryX=0;entryY=0.5;entryDx=0;entryDy=0;" edge="1" parent="1" source="28" target="29">
                    <mxGeometry relative="1" as="geometry">
                        <Array as="points">
                            <mxPoint x="95" y="460"/>
                        </Array>
                    </mxGeometry>
                </mxCell>
                <mxCell id="36" style="edgeStyle=none;html=1;entryX=0;entryY=0.5;entryDx=0;entryDy=0;" edge="1" parent="1" source="28" target="35">
                    <mxGeometry relative="1" as="geometry">
                        <Array as="points">
                            <mxPoint x="95" y="570"/>
                        </Array>
                    </mxGeometry>
                </mxCell>
                <mxCell id="28" value="My-Plugin" style="rounded=0;whiteSpace=wrap;html=1;" vertex="1" parent="1">
                    <mxGeometry x="20" y="420" width="150" height="20" as="geometry"/>
                </mxCell>
                <mxCell id="32" style="edgeStyle=none;html=1;entryX=0;entryY=0.75;entryDx=0;entryDy=0;" edge="1" parent="1" source="29" target="31">
                    <mxGeometry relative="1" as="geometry">
                        <Array as="points">
                            <mxPoint x="205" y="495"/>
                        </Array>
                    </mxGeometry>
                </mxCell>
                <mxCell id="34" style="edgeStyle=none;html=1;entryX=0;entryY=0.5;entryDx=0;entryDy=0;" edge="1" parent="1" source="29" target="33">
                    <mxGeometry relative="1" as="geometry">
                        <Array as="points">
                            <mxPoint x="205" y="520"/>
                        </Array>
                    </mxGeometry>
                </mxCell>
                <mxCell id="29" value="Src" style="rounded=0;whiteSpace=wrap;html=1;" vertex="1" parent="1">
                    <mxGeometry x="130" y="450" width="150" height="20" as="geometry"/>
                </mxCell>
                <mxCell id="37" style="edgeStyle=none;html=1;entryX=0.001;entryY=0.367;entryDx=0;entryDy=0;entryPerimeter=0;fontColor=#FFFF66;strokeColor=#FFFF66;" edge="1" parent="1" source="31" target="38">
                    <mxGeometry relative="1" as="geometry">
                        <mxPoint x="460" y="490" as="targetPoint"/>
                        <Array as="points">
                            <mxPoint x="420" y="490"/>
                        </Array>
                    </mxGeometry>
                </mxCell>
                <mxCell id="31" value="lib.rs" style="rounded=0;whiteSpace=wrap;html=1;" vertex="1" parent="1">
                    <mxGeometry x="240" y="480" width="150" height="20" as="geometry"/>
                </mxCell>
                <mxCell id="33" value="other-file.rs" style="rounded=0;whiteSpace=wrap;html=1;" vertex="1" parent="1">
                    <mxGeometry x="240" y="510" width="150" height="20" as="geometry"/>
                </mxCell>
                <mxCell id="44" style="edgeStyle=none;html=1;entryX=0;entryY=0.067;entryDx=0;entryDy=0;entryPerimeter=0;fontColor=#FFFF66;strokeColor=#FFFF66;" edge="1" parent="1" source="35" target="42">
                    <mxGeometry relative="1" as="geometry">
                        <Array as="points">
                            <mxPoint x="420" y="570"/>
                            <mxPoint x="420" y="740"/>
                        </Array>
                    </mxGeometry>
                </mxCell>
                <mxCell id="35" value="cargo.toml" style="rounded=0;whiteSpace=wrap;html=1;" vertex="1" parent="1">
                    <mxGeometry x="130" y="560" width="150" height="20" as="geometry"/>
                </mxCell>
                <mxCell id="38" value="" style="rounded=1;whiteSpace=wrap;html=1;arcSize=2;align=center;verticalAlign=top;" vertex="1" parent="1">
                    <mxGeometry x="440" y="380" width="390" height="300" as="geometry"/>
                </mxCell>
                <mxCell id="41" value="&lt;span style=&quot;&quot;&gt;Example Lib File&lt;/span&gt;" style="rounded=0;whiteSpace=wrap;html=1;verticalAlign=middle;align=center;spacing=0;" vertex="1" parent="1">
                    <mxGeometry x="440" y="380" width="390" height="20" as="geometry"/>
                </mxCell>
                <mxCell id="42" value="" style="rounded=1;whiteSpace=wrap;html=1;arcSize=2;align=center;verticalAlign=top;" vertex="1" parent="1">
                    <mxGeometry x="440" y="720" width="390" height="300" as="geometry"/>
                </mxCell>
                <mxCell id="43" value="&lt;span style=&quot;&quot;&gt;Example Cargo.toml File&lt;/span&gt;" style="rounded=0;whiteSpace=wrap;html=1;verticalAlign=middle;align=center;spacing=0;" vertex="1" parent="1">
                    <mxGeometry x="440" y="720" width="390" height="20" as="geometry"/>
                </mxCell>
                <mxCell id="45" value="&lt;span style=&quot;&quot;&gt;Plugin Structure (WIP)&lt;/span&gt;" style="rounded=0;whiteSpace=wrap;html=1;verticalAlign=middle;align=center;spacing=0;" vertex="1" parent="1">
                    <mxGeometry x="10" y="380" width="390" height="20" as="geometry"/>
                </mxCell>
                <mxCell id="46" value="icon.png" style="rounded=0;whiteSpace=wrap;html=1;" vertex="1" parent="1">
                    <mxGeometry x="130" y="590" width="150" height="20" as="geometry"/>
                </mxCell>
                <mxCell id="47" style="edgeStyle=none;html=1;entryX=0;entryY=0.5;entryDx=0;entryDy=0;" edge="1" parent="1" target="46">
                    <mxGeometry relative="1" as="geometry">
                        <mxPoint x="95" y="440" as="sourcePoint"/>
                        <mxPoint x="130" y="570" as="targetPoint"/>
                        <Array as="points">
                            <mxPoint x="95" y="600"/>
                        </Array>
                    </mxGeometry>
                </mxCell>
            </root>
        </mxGraphModel>
    </diagram>
</mxfile>